<svg width="230" height="44" viewBox="0 0 230 44" fill="none" xmlns="http://www.w3.org/2000/svg">
<g clip-path="url(#clip0_1077_12607)">
<path d="M36.9469 13.3943C36.9212 7.05055 41.8527 7.05055 46.7842 7.05055H52.1267V12.1811L59.113 12.1559V7.02528L64.4555 7C69.387 7 74.3185 6.97473 74.3185 13.3185L74.3699 30.631C74.3956 36.9747 69.464 36.9747 64.5325 36.9747H59.1901V31.8189L52.2038 31.8441V37H46.8613C41.9298 37 36.9983 37.0253 36.9983 30.6815L36.9469 13.3943ZM46.4503 31.8441L52.2038 31.8189L52.1524 12.1559L46.399 12.1811C45.1661 12.1811 43.9332 12.1811 43.9332 13.8239L43.9589 30.2013C43.9846 31.8694 45.2175 31.8694 46.4503 31.8441ZM64.9435 31.8189C66.1764 31.8189 67.4092 31.8189 67.4092 30.1761L67.3836 13.7987C67.3836 12.1559 66.1507 12.1559 64.9178 12.1559L59.1644 12.1811L59.2158 31.8441L64.9435 31.8189ZM0.5 7.22747V12.1811H34.4041V7.22747H0.5ZM8.28253 23.2511H32.1182V18.2721L0.5 18.2216V36.9747H34.4041V32.0463H8.28253V23.2511ZM85.8253 30.4541V18.2216H78.0428V30.909C78.0428 37 83.5394 37 89.036 37H111.947V32.0463H88.5736C87.2123 32.0463 85.8253 32.0463 85.8253 30.4541ZM89.036 7.22747C83.899 7.22747 78.762 7.22747 78.1199 12.1811H111.947V7.22747H89.036ZM120.5 7.22747H119.652V36.9747H120.5V7.22747Z" fill="#212121"/>
<path d="M129.5 7H136.888V8.0795H131.213V9.41004H136.402V10.4895H131.213V12.3975H136.888V13.477H129.5V7Z" fill="#212121"/>
<path d="M140.185 10.6904V7H146.576V12.3975H147.777V14.9331H146.269V13.477H139.495V14.9582H137.987V12.3975C139.418 12.3975 140.185 11.9958 140.185 10.6904ZM144.863 12.3975V8.0795H141.872V10.6653C141.872 11.4937 141.668 11.9456 141.361 12.3724H144.863V12.3975Z" fill="#212121"/>
<path d="M148.851 7H150.538V11.5941L154.832 7H156.724V13.477H155.037V8.85774L150.768 13.477H148.876V7H148.851Z" fill="#212121"/>
<path d="M158.13 7H159.817V9.41004H164.316V7H166.003V13.477H164.316V10.4895H159.817V13.477H158.13V7Z" fill="#212121"/>
<path d="M170.221 7H172.521L175.793 13.477H174.004L173.058 11.6192H169.658L168.713 13.477H166.923L170.221 7ZM172.521 10.5397L171.371 8.28034L170.221 10.5397H172.521Z" fill="#212121"/>
<path d="M178.989 10.8159C177.89 10.8159 176.688 10.8159 176.688 9.48536V8.33054C176.688 7 177.89 7 179.091 7H184.587V13.477H182.9V10.8159H181.111L178.401 13.477H176.305L178.989 10.8159ZM178.989 9.76151H182.874V8.0795H178.989C178.682 8.0795 178.401 8.0795 178.401 8.43096V9.41004C178.401 9.76151 178.708 9.76151 178.989 9.76151Z" fill="#212121"/>
<path d="M129.5 20.8328C129.5 19.5023 130.701 19.5023 131.903 19.5023H133.207V18.7742H134.894V19.5023H136.197C137.399 19.5023 138.6 19.5023 138.6 20.8328V23.1926C138.6 24.5232 137.399 24.5232 136.197 24.5232H134.894V25.2512H133.207V24.5232H131.903C130.701 24.5232 129.5 24.5232 129.5 23.1926V20.8328ZM131.801 23.4186H133.207V20.5818H131.801C131.494 20.5818 131.213 20.5818 131.213 20.9332V23.0922C131.187 23.4186 131.494 23.4186 131.801 23.4186ZM136.274 23.4186C136.581 23.4186 136.862 23.4186 136.862 23.0671V20.9081C136.862 20.5567 136.555 20.5567 136.274 20.5567H134.868V23.3935H136.274V23.4186Z" fill="#212121"/>
<path d="M139.98 18.7742H145.476C146.678 18.7742 147.879 18.7742 147.879 20.1048V21.4855C147.879 22.8161 146.678 22.8161 145.476 22.8161H141.693V25.2763H140.006V18.7742H139.98ZM145.579 21.7115C145.885 21.7115 146.167 21.7115 146.167 21.36V20.1801C146.167 19.8286 145.86 19.8286 145.579 19.8286H141.693V21.6864H145.579V21.7115Z" fill="#212121"/>
<path d="M149.26 20.0796C149.26 18.7491 150.461 18.7491 151.663 18.7491H154.756C155.957 18.7491 157.159 18.7491 157.159 20.0796V23.8955C157.159 25.2261 155.957 25.2261 154.756 25.2261H151.663C150.461 25.2261 149.26 25.2261 149.26 23.8955V20.0796ZM151.56 24.1466H154.858C155.165 24.1466 155.446 24.1466 155.446 23.7951V20.18C155.446 19.8286 155.139 19.8286 154.858 19.8286H151.56C151.254 19.8286 150.972 19.8286 150.972 20.18V23.7951C150.947 24.1466 151.254 24.1466 151.56 24.1466Z" fill="#212121"/>
<path d="M158.539 18.7742H160.226V21.1843H164.725V18.7742H166.412V25.2512H164.725V22.2387H160.226V25.2261H158.539V18.7742Z" fill="#212121"/>
<path d="M167.409 18.7742H175.895V19.8537H172.521V25.2512H170.834V19.8537H167.409V18.7742Z" fill="#212121"/>
<path d="M178.299 18.7742H180.599L183.897 25.2512H182.108L181.162 23.3935H177.762L176.816 25.2512H175.027L178.299 18.7742ZM180.599 22.2889L179.449 20.0295L178.299 22.2889H180.599Z" fill="#212121"/>
<path d="M184.485 24.1466C185.124 24.0462 185.993 23.7952 185.993 22.4395V18.7742H192.869V25.2512H191.182V19.8537H187.68V22.4395C187.68 25.0253 185.482 25.1759 184.485 25.2261V24.1466Z" fill="#212121"/>
<path d="M194.275 18.7742H195.962V21.1843H199.26C200.461 21.1843 201.662 21.1843 201.662 22.5148V23.9458C201.662 25.2763 200.461 25.2763 199.26 25.2763H194.275V18.7742ZM199.362 24.1466C199.669 24.1466 199.95 24.1466 199.95 23.7952V22.565C199.95 22.2136 199.643 22.2136 199.362 22.2136H195.962V24.1215H199.362V24.1466Z" fill="#212121"/>
<path d="M203.043 18.7742H204.73V21.1843H209.229V18.7742H210.916V25.2512H209.229V22.2387H204.73V25.2261H203.043V18.7742Z" fill="#212121"/>
<path d="M215.108 18.7742H217.409L220.707 25.2512H218.917L217.971 23.3935H214.572L213.626 25.2512H211.836L215.108 18.7742ZM217.409 22.2889L216.259 20.0295L215.108 22.2889H217.409Z" fill="#212121"/>
<path d="M223.902 22.5901C222.802 22.5901 221.601 22.5901 221.601 21.2595V20.0796C221.601 18.7491 222.802 18.7491 224.004 18.7491H229.5V25.2261H227.813V22.5901H226.023L223.339 25.2261H221.243L223.902 22.5901ZM223.902 21.5106H227.787V19.8537H223.902C223.595 19.8537 223.314 19.8537 223.314 20.2052V21.1842C223.314 21.5106 223.595 21.5106 223.902 21.5106Z" fill="#212121"/>
<path d="M129.5 31.8534C129.5 30.5229 130.701 30.5229 131.903 30.5229H136.888V31.6024H131.801C131.494 31.6024 131.213 31.6024 131.213 31.9538V35.5689C131.213 35.9204 131.519 35.9204 131.801 35.9204H136.888V36.9999H131.903C130.701 36.9999 129.5 36.9999 129.5 35.6693V31.8534Z" fill="#212121"/>
<path d="M138.293 30.5229H139.981V35.117L144.275 30.5229H146.167V36.9999H144.48V32.4057L140.185 36.9999H138.293V30.5229Z" fill="#212121"/>
<path d="M147.573 31.8534C147.573 30.5229 148.774 30.5229 149.976 30.5229H154.96V31.6024H149.873C149.567 31.6024 149.285 31.6024 149.285 31.9538V35.5689C149.285 35.9204 149.592 35.9204 149.873 35.9204H154.96V36.9999H149.976C148.774 36.9999 147.573 36.9999 147.573 35.6693V31.8534Z" fill="#212121"/>
<path d="M155.957 30.5229H164.444V31.6024H161.044V36.9999H159.357V31.6024H155.957V30.5229Z" fill="#212121"/>
<path d="M165.415 30.5229H172.803V31.6024H167.128V32.9329H172.317V34.0124H167.128V35.9204H172.803V36.9999H165.415V30.5229Z" fill="#212121"/>
<path d="M174.208 30.5229H176.458L178.963 35.4183L181.468 30.5229H183.718V36.9999H181.979V32.5815L179.73 36.9999H178.145L175.896 32.5815V36.9999H174.208V30.5229Z" fill="#212121"/>
<path d="M187.885 30.5229H190.185L193.483 36.9999H191.694L190.748 35.1421H187.348L186.402 36.9999H184.613L187.885 30.5229ZM190.185 34.0626L189.035 31.8032L187.885 34.0626H190.185Z" fill="#212121"/>
</g>
<defs>
<clipPath id="clip0_1077_12607">
<rect width="229" height="44" fill="white" transform="translate(0.5)"/>
</clipPath>
</defs>
</svg>
